<?xml version="1.0" encoding="UTF-8" standalone="no"?>
<!DOCTYPE svg PUBLIC "-//W3C//DTD SVG 1.1//EN"
 "http://www.w3.org/Graphics/SVG/1.1/DTD/svg11.dtd">
<!-- Generated by graphviz version 2.40.1 (20161225.0304)
 -->
<!-- Title: dependencies Pages: 1 -->
<svg width="914pt" height="284pt"
 viewBox="0.00 0.00 914.00 284.00" xmlns="http://www.w3.org/2000/svg" xmlns:xlink="http://www.w3.org/1999/xlink">
<g id="graph0" class="graph" transform="scale(1 1) rotate(0) translate(4 280)">
<title>dependencies</title>
<polygon fill="#ffffff" stroke="transparent" points="-4,4 -4,-280 910,-280 910,4 -4,4"/>
<text text-anchor="start" x="432.0091" y="-42.4" font-family="sans-serif" font-weight="bold" font-size="14.00" fill="#000000">Legend</text>
<polygon fill="#ffffb3" stroke="transparent" points="219,-10 219,-30 239,-30 239,-10 219,-10"/>
<text text-anchor="start" x="242.629" y="-15.4" font-family="sans-serif" font-size="14.00" fill="#000000"> &#160;Declarations</text>
<polygon fill="#8dd3c7" stroke="transparent" points="332,-10 332,-30 352,-30 352,-10 332,-10"/>
<text text-anchor="start" x="355.7251" y="-15.4" font-family="sans-serif" font-size="14.00" fill="#000000"> &#160;Module</text>
<polygon fill="#80b1d3" stroke="transparent" points="418,-10 418,-30 438,-30 438,-10 418,-10"/>
<text text-anchor="start" x="441.7812" y="-15.4" font-family="sans-serif" font-size="14.00" fill="#000000"> &#160;Bootstrap</text>
<polygon fill="#fdb462" stroke="transparent" points="515,-10 515,-30 535,-30 535,-10 515,-10"/>
<text text-anchor="start" x="538.6732" y="-15.4" font-family="sans-serif" font-size="14.00" fill="#000000"> &#160;Providers</text>
<polygon fill="#fb8072" stroke="transparent" points="611,-10 611,-30 631,-30 631,-10 611,-10"/>
<text text-anchor="start" x="634.7258" y="-15.4" font-family="sans-serif" font-size="14.00" fill="#000000"> &#160;Exports</text>
<g id="clust1" class="cluster">
<title>cluster_NgxAmapModule</title>
<polygon fill="none" stroke="#000000" stroke-dasharray="1,5" points="8,-70 8,-268 898,-268 898,-70 8,-70"/>
</g>
<g id="clust2" class="cluster">
<title>cluster_NgxAmapModule_declarations</title>
<polygon fill="none" stroke="#000000" points="25,-78 25,-130 881,-130 881,-78 25,-78"/>
</g>
<g id="clust9" class="cluster">
<title>cluster_NgxAmapModule_exports</title>
<polygon fill="none" stroke="#000000" points="16,-208 16,-260 890,-260 890,-208 16,-208"/>
</g>
<!-- NgxAmapComponent -->
<g id="node1" class="node">
<title>NgxAmapComponent</title>
<polygon fill="#ffffb3" stroke="#000000" points="872.6512,-122 733.3488,-122 733.3488,-86 872.6512,-86 872.6512,-122"/>
<text text-anchor="middle" x="803" y="-99.8" font-family="Times,serif" font-size="14.00" fill="#000000">NgxAmapComponent</text>
</g>
<!-- NgxAmapModule -->
<g id="node6" class="node">
<title>NgxAmapModule</title>
<polygon fill="#8dd3c7" stroke="#000000" points="518.8683,-187 515.8683,-191 494.8683,-191 491.8683,-187 401.1317,-187 401.1317,-151 518.8683,-151 518.8683,-187"/>
<text text-anchor="middle" x="460" y="-164.8" font-family="Times,serif" font-size="14.00" fill="#000000">NgxAmapModule</text>
</g>
<!-- NgxAmapComponent&#45;&gt;NgxAmapModule -->
<g id="edge1" class="edge">
<title>NgxAmapComponent&#45;&gt;NgxAmapModule</title>
<path fill="none" stroke="#000000" d="M828.0251,-122.2667C828.0251,-140.5552 828.0251,-166 828.0251,-166 828.0251,-166 529.1296,-166 529.1296,-166"/>
<polygon fill="#000000" stroke="#000000" points="529.1296,-162.5001 519.1296,-166 529.1296,-169.5001 529.1296,-162.5001"/>
</g>
<!-- AmapMarkerDirective -->
<g id="node2" class="node">
<title>AmapMarkerDirective</title>
<polygon fill="#ffffb3" stroke="#000000" points="714.9904,-122 571.0096,-122 571.0096,-86 714.9904,-86 714.9904,-122"/>
<text text-anchor="middle" x="643" y="-99.8" font-family="Times,serif" font-size="14.00" fill="#000000">AmapMarkerDirective</text>
</g>
<!-- AmapMarkerDirective&#45;&gt;NgxAmapModule -->
<g id="edge2" class="edge">
<title>AmapMarkerDirective&#45;&gt;NgxAmapModule</title>
<path fill="none" stroke="#000000" d="M667.6649,-122.0091C667.6649,-138.0494 667.6649,-159 667.6649,-159 667.6649,-159 528.953,-159 528.953,-159"/>
<polygon fill="#000000" stroke="#000000" points="528.953,-155.5001 518.953,-159 528.9529,-162.5001 528.953,-155.5001"/>
</g>
<!-- AmapInfoWindowComponent -->
<g id="node3" class="node">
<title>AmapInfoWindowComponent</title>
<polygon fill="#ffffb3" stroke="#000000" points="553.5772,-122 366.4228,-122 366.4228,-86 553.5772,-86 553.5772,-122"/>
<text text-anchor="middle" x="460" y="-99.8" font-family="Times,serif" font-size="14.00" fill="#000000">AmapInfoWindowComponent</text>
</g>
<!-- AmapInfoWindowComponent&#45;&gt;NgxAmapModule -->
<g id="edge3" class="edge">
<title>AmapInfoWindowComponent&#45;&gt;NgxAmapModule</title>
<path fill="none" stroke="#000000" d="M460,-122.1061C460,-122.1061 460,-140.991 460,-140.991"/>
<polygon fill="#000000" stroke="#000000" points="456.5001,-140.9909 460,-150.991 463.5001,-140.991 456.5001,-140.9909"/>
</g>
<!-- AmapPolylineDirective -->
<g id="node4" class="node">
<title>AmapPolylineDirective</title>
<polygon fill="#ffffb3" stroke="#000000" points="348.4636,-122 199.5364,-122 199.5364,-86 348.4636,-86 348.4636,-122"/>
<text text-anchor="middle" x="274" y="-99.8" font-family="Times,serif" font-size="14.00" fill="#000000">AmapPolylineDirective</text>
</g>
<!-- AmapPolylineDirective&#45;&gt;NgxAmapModule -->
<g id="edge4" class="edge">
<title>AmapPolylineDirective&#45;&gt;NgxAmapModule</title>
<path fill="none" stroke="#000000" d="M297.3273,-122.0091C297.3273,-138.0494 297.3273,-159 297.3273,-159 297.3273,-159 390.8112,-159 390.8112,-159"/>
<polygon fill="#000000" stroke="#000000" points="390.8113,-162.5001 400.8112,-159 390.8112,-155.5001 390.8113,-162.5001"/>
</g>
<!-- AmapToolBarDirective -->
<g id="node5" class="node">
<title>AmapToolBarDirective</title>
<polygon fill="#ffffb3" stroke="#000000" points="181.4496,-122 32.5504,-122 32.5504,-86 181.4496,-86 181.4496,-122"/>
<text text-anchor="middle" x="107" y="-99.8" font-family="Times,serif" font-size="14.00" fill="#000000">AmapToolBarDirective</text>
</g>
<!-- AmapToolBarDirective&#45;&gt;NgxAmapModule -->
<g id="edge5" class="edge">
<title>AmapToolBarDirective&#45;&gt;NgxAmapModule</title>
<path fill="none" stroke="#000000" d="M128.3249,-122.2667C128.3249,-140.5552 128.3249,-166 128.3249,-166 128.3249,-166 391.0853,-166 391.0853,-166"/>
<polygon fill="#000000" stroke="#000000" points="391.0854,-169.5001 401.0853,-166 391.0853,-162.5001 391.0854,-169.5001"/>
</g>
<!-- NgxAmapComponent  -->
<g id="node7" class="node">
<title>NgxAmapComponent </title>
<polygon fill="#fb8072" stroke="#000000" points="881.6509,-252 738.3491,-252 738.3491,-216 881.6509,-216 881.6509,-252"/>
<text text-anchor="middle" x="810" y="-229.8" font-family="Times,serif" font-size="14.00" fill="#000000">NgxAmapComponent </text>
</g>
<!-- NgxAmapModule&#45;&gt;NgxAmapComponent  -->
<g id="edge6" class="edge">
<title>NgxAmapModule&#45;&gt;NgxAmapComponent </title>
<path fill="none" stroke="#000000" stroke-dasharray="5,2" d="M518.9086,-173C612.1377,-173 783.2249,-173 783.2249,-173 783.2249,-173 783.2249,-205.698 783.2249,-205.698"/>
<polygon fill="#000000" stroke="#000000" points="779.725,-205.698 783.2249,-215.698 786.725,-205.698 779.725,-205.698"/>
</g>
<!-- AmapMarkerDirective  -->
<g id="node8" class="node">
<title>AmapMarkerDirective </title>
<polygon fill="#fb8072" stroke="#000000" points="720.4896,-252 573.5104,-252 573.5104,-216 720.4896,-216 720.4896,-252"/>
<text text-anchor="middle" x="647" y="-229.8" font-family="Times,serif" font-size="14.00" fill="#000000">AmapMarkerDirective </text>
</g>
<!-- NgxAmapModule&#45;&gt;AmapMarkerDirective  -->
<g id="edge7" class="edge">
<title>NgxAmapModule&#45;&gt;AmapMarkerDirective </title>
<path fill="none" stroke="#000000" stroke-dasharray="5,2" d="M518.8841,-180C564.715,-180 620.5851,-180 620.5851,-180 620.5851,-180 620.5851,-205.7181 620.5851,-205.7181"/>
<polygon fill="#000000" stroke="#000000" points="617.0852,-205.718 620.5851,-215.7181 624.0852,-205.7181 617.0852,-205.718"/>
</g>
<!-- AmapInfoWindowComponent  -->
<g id="node9" class="node">
<title>AmapInfoWindowComponent </title>
<polygon fill="#fb8072" stroke="#000000" points="555.0777,-252 364.9223,-252 364.9223,-216 555.0777,-216 555.0777,-252"/>
<text text-anchor="middle" x="460" y="-229.8" font-family="Times,serif" font-size="14.00" fill="#000000">AmapInfoWindowComponent </text>
</g>
<!-- NgxAmapModule&#45;&gt;AmapInfoWindowComponent  -->
<g id="edge8" class="edge">
<title>NgxAmapModule&#45;&gt;AmapInfoWindowComponent </title>
<path fill="none" stroke="#000000" stroke-dasharray="5,2" d="M460,-187.1061C460,-187.1061 460,-205.991 460,-205.991"/>
<polygon fill="#000000" stroke="#000000" points="456.5001,-205.9909 460,-215.991 463.5001,-205.991 456.5001,-205.9909"/>
</g>
<!-- AmapPolylineDirective  -->
<g id="node10" class="node">
<title>AmapPolylineDirective </title>
<polygon fill="#fb8072" stroke="#000000" points="346.4643,-252 193.5357,-252 193.5357,-216 346.4643,-216 346.4643,-252"/>
<text text-anchor="middle" x="270" y="-229.8" font-family="Times,serif" font-size="14.00" fill="#000000">AmapPolylineDirective </text>
</g>
<!-- NgxAmapModule&#45;&gt;AmapPolylineDirective  -->
<g id="edge9" class="edge">
<title>NgxAmapModule&#45;&gt;AmapPolylineDirective </title>
<path fill="none" stroke="#000000" stroke-dasharray="5,2" d="M401.0639,-180C338.4599,-180 248.4227,-180 248.4227,-180 248.4227,-180 248.4227,-205.7181 248.4227,-205.7181"/>
<polygon fill="#000000" stroke="#000000" points="244.9228,-205.718 248.4227,-215.7181 251.9228,-205.7181 244.9228,-205.718"/>
</g>
<!-- AmapToolBarDirective  -->
<g id="node11" class="node">
<title>AmapToolBarDirective </title>
<polygon fill="#fb8072" stroke="#000000" points="176.4503,-252 23.5497,-252 23.5497,-216 176.4503,-216 176.4503,-252"/>
<text text-anchor="middle" x="100" y="-229.8" font-family="Times,serif" font-size="14.00" fill="#000000">AmapToolBarDirective </text>
</g>
<!-- NgxAmapModule&#45;&gt;AmapToolBarDirective  -->
<g id="edge10" class="edge">
<title>NgxAmapModule&#45;&gt;AmapToolBarDirective </title>
<path fill="none" stroke="#000000" stroke-dasharray="5,2" d="M401.1079,-173C294.4923,-173 80.4251,-173 80.4251,-173 80.4251,-173 80.4251,-205.698 80.4251,-205.698"/>
<polygon fill="#000000" stroke="#000000" points="76.9252,-205.698 80.4251,-215.698 83.9252,-205.698 76.9252,-205.698"/>
</g>
</g>
</svg>
